<?xml version="1.0" encoding="UTF-8" standalone="no"?>
<!-- Generator: Adobe Illustrator 16.0.3, SVG Export Plug-In . SVG Version: 6.00 Build 0)  -->

<svg
   xmlns:dc="http://purl.org/dc/elements/1.1/"
   xmlns:cc="http://creativecommons.org/ns#"
   xmlns:rdf="http://www.w3.org/1999/02/22-rdf-syntax-ns#"
   xmlns:svg="http://www.w3.org/2000/svg"
   xmlns="http://www.w3.org/2000/svg"
   xmlns:sodipodi="http://sodipodi.sourceforge.net/DTD/sodipodi-0.dtd"
   xmlns:inkscape="http://www.inkscape.org/namespaces/inkscape"
   version="1.1"
   id="Layer_1"
   x="0px"
   y="0px"
   width="150"
   height="150"
   viewBox="0 0 150 150"
   enable-background="new 0 0 400 300"
   xml:space="preserve"
   inkscape:version="0.91 r13725"
   sodipodi:docname="logoCG.svg"><metadata
     id="metadata4187"><rdf:RDF><cc:Work
         rdf:about=""><dc:format>image/svg+xml</dc:format><dc:type
           rdf:resource="http://purl.org/dc/dcmitype/StillImage" /><dc:title></dc:title></cc:Work></rdf:RDF></metadata><defs
     id="defs4185" /><sodipodi:namedview
     pagecolor="#ffffff"
     bordercolor="#666666"
     borderopacity="1"
     objecttolerance="10"
     gridtolerance="10"
     guidetolerance="10"
     inkscape:pageopacity="0"
     inkscape:pageshadow="2"
     inkscape:window-width="1600"
     inkscape:window-height="1147"
     id="namedview4183"
     showgrid="false"
     inkscape:zoom="1.9975522"
     inkscape:cx="143.23299"
     inkscape:cy="118.96884"
     inkscape:window-x="-8"
     inkscape:window-y="-8"
     inkscape:window-maximized="1"
     inkscape:current-layer="Layer_1" /><g
     id="g4137"
     transform="matrix(0.49527544,0,0,0.49527544,-39.330338,-3.7599915)"><path
       d="m 340.266,265.187 -90.25853,-0.50061 -0.50061,-9.48639 90.75914,0 c 13.855,0 22.414,-0.546 25.205,-3.338 2.576,-2.585 2.563,-9.946 2.54,-21.095 l -0.003,-74.799 9.985,0 0.005,74.78 c 0.026,14.126 0.043,22.653 -5.462,28.166 -5.356,5.365 -14.283,6.273 -32.27,6.273 z"
       id="path4139"
       inkscape:connector-curvature="0"
       style="fill:#ed7000"
       sodipodi:nodetypes="sccsccccccs" /></g><g
     id="g4141"
     transform="matrix(0.49527544,0,0,0.49527544,-7.7037804,-3.7599915)"><path
       d="m 58.292,265.187 93.25189,0.35399 -0.11799,-10.34099 -93.1339,0 c -13.854,0 -22.414,-0.547 -25.204,-3.339 -2.577,-2.585 -2.564,-9.946 -2.541,-21.095 l 0.003,-74.799 -9.985,0 -0.005,74.78 c -0.027,14.127 -0.043,22.653 5.461,28.166 5.357,5.365 14.285,6.274 32.271,6.274 z"
       id="path4143"
       inkscape:connector-curvature="0"
       style="fill:#245f9b"
       sodipodi:nodetypes="sccsccccccs" /></g><g
     id="g4145"
     transform="matrix(0.49527544,0,0,0.49527544,-39.330338,-1.7788898)"><path
       d="m 340.266,32.344 -110.68411,0.202916 0.14493,9.683853 110.53916,0.09923 c 13.855,0.01244 22.414,0.546 25.205,3.338 2.576,2.584 2.563,9.946 2.54,21.095 l -0.003,99.659001 9.985,0 0.005,-99.640001 c 0.026,-14.127 0.043,-22.654 -5.462,-28.167 -5.356,-5.363 -14.283,-6.271 -32.27,-6.271 z"
       id="path4147"
       inkscape:connector-curvature="0"
       style="fill:#ed7000"
       sodipodi:nodetypes="cccsccccccsc" /></g><g
     id="g4149"
     transform="matrix(0.49527544,0,0,0.49527544,-7.7037804,-1.7788898)"><path
       d="m 58.292,32.345 109.32396,0.181793 -0.0935,9.715753 -109.23071,0.0885 c -13.853995,0.01122 -22.414,0.546 -25.204,3.338 -2.577,2.584 -2.564,9.946 -2.541,21.095 l 0.003,103.218994 -9.985,0 -0.004,-103.199994 c -0.027,-14.127 -0.043,-22.654 5.461,-28.167 5.356,-5.364 14.284,-6.271 32.27,-6.271 z"
       id="path4151"
       inkscape:connector-curvature="0"
       style="fill:#245f9b"
       sodipodi:nodetypes="cccsccccccsc" /></g><g
     id="g4153"
     transform="matrix(0.49527544,0,0,0.49527544,-22.335505,-4.49291)"><path
       d="m 192.804,91.67 -22.375,18.321 c -6.091,-7.28 -14.42,-10.922 -24.987,-10.922 -11.064,0 -20.2,4.012 -27.412,12.034 -7.213,8.024 -10.815,18.198 -10.815,30.511 0,12.191 3.572,22.333 10.72,30.414 7.15,8.087 16.006,12.131 26.576,12.131 11.807,0 20.881,-4.713 27.221,-14.146 l 24.244,18.076 c -5.345,7.571 -12.432,13.346 -21.255,17.319 -8.202,3.726 -17.022,5.591 -26.465,5.591 -20.881,0 -37.972,-6.339 -51.265,-19.024 -13.296,-12.686 -19.943,-29.472 -19.943,-50.36 0,-20.887 6.647,-37.673 19.943,-50.36 13.293,-12.683 30.384,-19.024 51.265,-19.024 19.633,-0.002 34.482,6.485 44.548,19.439"
       id="path4155"
       inkscape:connector-curvature="0"
       style="fill:#245f9b" /></g><g
     id="g4157"
     transform="matrix(0.49527544,0,0,0.49527544,-22.335505,-4.49291)"><path
       d="m 316.402,129.444 0,68.89 c -16.147,8.445 -34.593,12.664 -55.331,12.664 -20.864,0 -37.942,-6.339 -51.235,-19.024 -13.287,-12.686 -19.924,-29.472 -19.924,-50.36 0,-20.887 6.645,-37.673 19.941,-50.36 13.297,-12.683 30.388,-19.024 51.263,-19.024 22.865,0 40.388,5.669 52.57,17.011 l -20.513,22.428 c -7.956,-8.397 -18.645,-12.599 -32.07,-12.599 -12.309,0 -22.223,3.979 -29.743,11.945 -7.522,7.961 -11.28,18.165 -11.28,30.6 0,12.437 3.758,22.638 11.28,30.601 7.521,7.967 17.435,11.943 29.749,11.943 10.442,0 19.584,-2.17 27.416,-6.507 l 0,-21.372 -23.678,0 0,-26.836 51.555,0"
       id="path4159"
       inkscape:connector-curvature="0"
       style="fill:#ed7000" /></g><g
     id="g4739"
     transform="matrix(0.49527544,0,0,0.49527544,-2.3455208,-0.08767521)"><g
       transform="translate(-39.103139,-0.71748879)"
       id="g4161"><path
         style="fill:#ed7000"
         inkscape:connector-curvature="0"
         id="path4163"
         d="m 205.698,228.999 c 0,0 30.311,13.569 30.311,30.315 0,16.748 -30.311,30.317 -30.311,30.317 l 0,-60.632" /></g><g
       transform="translate(-39.103139,-0.71748879)"
       id="g4165"><g
         id="g4167"><path
           style="fill:#ed7000"
           inkscape:connector-curvature="0"
           id="path4169"
           d="m 204.033,292.201 0,-65.771 2.345,1.05 c 1.277,0.572 31.295,14.212 31.295,31.835 0,17.624 -30.018,31.265 -31.295,31.837 l -2.345,1.049 z m 3.329,-60.545 0,55.316 c 6.956,-3.528 26.981,-14.807 26.981,-27.658 0.001,-12.863 -20.025,-24.132 -26.981,-27.658 z" /></g></g><g
       transform="translate(-39.103139,-0.71748879)"
       id="g4171"><g
         id="g4173"><path
           style="fill:#245f9b"
           inkscape:connector-curvature="0"
           id="path4175"
           d="m 156.606,259.314 c 0,-16.746 30.32,-30.315 30.32,-30.315 l 0,60.633 c 0.001,0 -30.32,-13.569 -30.32,-30.318" /></g></g><g
       transform="translate(-39.103139,-0.71748879)"
       id="g4177"><g
         id="g4179"><path
           style="fill:#245f9b"
           inkscape:connector-curvature="0"
           id="path4181"
           d="m 188.591,292.201 -2.344,-1.05 c -1.278,-0.572 -31.305,-14.213 -31.305,-31.837 0,-17.623 30.026,-31.263 31.305,-31.836 l 2.344,-1.049 0,65.772 z m -3.329,-60.544 c -6.957,3.528 -26.991,14.806 -26.991,27.657 0,12.853 20.035,24.131 26.991,27.659 l 0,-55.316 z" /></g></g></g></svg>