<svg xmlns:rdf="http://www.w3.org/1999/02/22-rdf-syntax-ns#" xmlns="http://www.w3.org/2000/svg" height="320" width="320" version="1.1" xmlns:cc="http://creativecommons.org/ns#" xmlns:dc="http://purl.org/dc/elements/1.1/">
<metadata>
<rdf:RDF>
<cc:Work rdf:about="">
<dc:format>image/svg+xml</dc:format>
<dc:type rdf:resource="http://purl.org/dc/dcmitype/StillImage"/>
<dc:title/>
</cc:Work>
</rdf:RDF>
</metadata>
<path fill-rule="nonzero" fill="#245f9b" d="m158,269c0.001-5.33,0.003-10.7,0.004-16h-121c-10.1-1.1-7.52-12.9-7.84-20.1,0.113-56.3-0.226-113,0.17-169,1.68-9.81,12.9-6.76,20-7.24h111v-16c-41-0.3-83.4-0.6-125-0.3-14.7,1.4-23.1,16.9-21.3,30.6,0.0769,58.3-0.154,117,0.116,175,0.699,14.2,14.5,24.8,28.4,22.7h116z"/>
<path fill="#f88603" d="m163,269v-16h121c10.1-1.1,7.52-12.9,7.84-20.1-0.113-56.3,0.226-113-0.17-169-1.68-9.81-12.9-6.76-20-7.24h-111v-16c42,0.0892,83.9-0.179,126,0.135,14.7,1.37,23.1,16.9,21.4,30.5-0.0714,58.3,0.143,117-0.107,175-0.449,14-13.9,24.7-27.6,22.7h-117z"/>
<path style="baseline-shift:baseline;block-progression:tb;color:#000000;direction:ltr;text-indent:0;text-align:start;enable-background:accumulate;text-transform:none;" fill="#f88603" d="m163,290c22.4,0.0993,29.8-14.6,30-29.4-1.07-22.6-18.2-29.2-30-29v58.4z"/>
<path style="baseline-shift:baseline;block-progression:tb;color:#000000;direction:ltr;text-indent:0;text-align:start;enable-background:accumulate;text-transform:none;" d="m158,231c-20.5,0.775-31.2,17.3-30.7,30.2-0.169,12.6,15.1,29,31.1,28.7,0-17.8-0.375-41.1-0.375-58.9z" fill-rule="nonzero" fill="#245f9b"/>
<path fill="#245f9b" d="m156,113c-3.42,4.77-6.84,9.54-10.3,14.3-15.2-10.3-36.8-15.8-55.7-1.53-14.4,13-19,38.4-7.67,51.7,11.7,14.9,46.6,16.6,63.4,5.8,3.45,4.93,6.91,9.87,10.4,14.8-18.2,12.7-47.9,12.6-69.7,4.39-28.1-12.1-32.8-42.6-26.6-64.2,6.28-24.4,32.9-40,63.1-36.7,11.7,0.708,16.7,3.66,33.1,11.4z"/>
<path fill="#f88603" d="m210,169v-17.5h53.3v41.4c-25.4,18.2-67.1,22.8-94.1,4.4-23.3-17.8-26.3-50.1-11.4-72.7,11.6-17.8,37.1-25.2,60-22.7,20.5,0.324,40.5,12.6,43.9,30.2-8.19,1.3-10.6,2.85-18.8,4.15-9.89-22.8-44.6-21.8-59.4-9.35-18.1,15.4-14,36.5-6.5,47.7,8.55,15.9,35.8,19.7,50.6,13.7,8.75-3.35,16.1-7.34,16.6-14.9,0.678-6.02-11.1-4.03-16-4.28h-18.3z"/>
</svg>
